<svg width="24" height="24" viewBox="0 0 24 24" fill="none" xmlns="http://www.w3.org/2000/svg">
<path d="M7.55016 21.75C16.6045 21.75 21.5583 14.2467 21.5583 7.7419C21.5583 7.53097 21.5536 7.31534 21.5442 7.1044C22.5079 6.40751 23.3395 5.5443 24 4.55534C23.1025 4.95464 22.1496 5.21543 21.1739 5.32878C22.2013 4.71295 22.9705 3.74552 23.3391 2.60581C22.3726 3.1786 21.3156 3.58266 20.2134 3.80065C19.4708 3.0116 18.489 2.48916 17.4197 2.31409C16.3504 2.13903 15.2532 2.32109 14.2977 2.83214C13.3423 3.34319 12.5818 4.15475 12.1338 5.14136C11.6859 6.12796 11.5754 7.23466 11.8195 8.29034C9.86249 8.19213 7.94794 7.68375 6.19998 6.79814C4.45203 5.91254 2.90969 4.66948 1.67297 3.14956C1.0444 4.23329 0.852057 5.51569 1.13503 6.73614C1.418 7.95658 2.15506 9.02349 3.19641 9.72003C2.41463 9.69521 1.64998 9.48472 0.965625 9.10597V9.1669C0.964925 10.3042 1.3581 11.4066 2.07831 12.2868C2.79852 13.167 3.80132 13.7706 4.91625 13.995C4.19206 14.1932 3.43198 14.222 2.69484 14.0794C3.00945 15.0575 3.62157 15.9129 4.44577 16.5264C5.26997 17.1398 6.26512 17.4806 7.29234 17.5013C5.54842 18.8712 3.39417 19.6142 1.17656 19.6107C0.783287 19.6101 0.390399 19.5859 0 19.5385C2.25286 20.9838 4.87353 21.7514 7.55016 21.75Z" fill="white" fill-opacity="0.2"/>
</svg>
