<?xml version="1.0" standalone="no"?>
<!DOCTYPE svg PUBLIC "-//W3C//DTD SVG 20010904//EN"
 "http://www.w3.org/TR/2001/REC-SVG-20010904/DTD/svg10.dtd">
<svg version="1.0" xmlns="http://www.w3.org/2000/svg"
 width="2438.000000pt" height="2438.000000pt" viewBox="0 0 2438.000000 2438.000000"
 preserveAspectRatio="xMidYMid meet">
<metadata>
Created by potrace 1.14, written by Peter Selinger 2001-2017
</metadata>
<g transform="translate(0.000000,2438.000000) scale(0.100000,-0.100000)"
fill="#000000" stroke="none">
<path d="M15137 24224 c-1 -1 -47 -5 -102 -8 -55 -4 -116 -8 -135 -11 -19 -2
-66 -7 -105 -10 -38 -3 -81 -8 -95 -10 -14 -2 -50 -7 -80 -10 -30 -3 -80 -10
-110 -15 -30 -5 -73 -12 -95 -15 -23 -3 -52 -8 -65 -10 -14 -3 -52 -10 -85
-15 -81 -14 -315 -60 -380 -76 -11 -3 -31 -7 -45 -10 -46 -9 -184 -45 -255
-66 -38 -11 -74 -21 -80 -23 -49 -10 -354 -115 -420 -144 -11 -5 -45 -19 -75
-31 -153 -62 -422 -194 -530 -260 -183 -112 -256 -159 -360 -233 -270 -194
-534 -441 -756 -707 -122 -145 -313 -419 -388 -555 -16 -27 -32 -54 -36 -60
-19 -24 -190 -370 -232 -470 -124 -292 -258 -704 -302 -925 -3 -14 -7 -34 -10
-45 -21 -92 -28 -125 -32 -155 -2 -19 -6 -42 -9 -50 -5 -15 -31 -160 -41 -228
-11 -76 -13 -88 -19 -132 -9 -69 -14 -120 -20 -185 -3 -33 -8 -73 -10 -90 -13
-100 -20 -291 -19 -590 0 -306 4 -416 19 -525 2 -19 7 -66 10 -105 3 -38 7
-86 10 -105 2 -19 7 -66 10 -105 3 -38 8 -90 11 -115 2 -25 6 -70 9 -100 3
-30 7 -75 10 -100 2 -25 7 -82 10 -127 4 -46 8 -91 9 -100 2 -10 7 -54 10 -98
4 -44 9 -91 11 -105 2 -14 6 -63 10 -110 3 -47 8 -98 10 -115 2 -16 7 -64 10
-105 3 -41 7 -88 9 -105 3 -16 7 -66 11 -110 3 -44 8 -91 10 -105 3 -14 7 -61
10 -105 3 -44 7 -91 10 -105 2 -14 7 -65 10 -114 4 -49 8 -96 10 -105 1 -9 6
-61 10 -116 3 -54 8 -102 10 -105 1 -3 6 -45 9 -95 4 -49 9 -109 11 -132 3
-24 7 -62 10 -85 2 -24 7 -74 10 -113 3 -38 8 -88 10 -110 3 -22 7 -67 10
-100 3 -33 8 -85 10 -115 3 -30 7 -80 10 -110 6 -76 14 -156 20 -210 3 -25 7
-71 10 -103 7 -82 18 -124 79 -308 47 -144 131 -361 156 -408 5 -9 32 -63 60
-121 77 -158 193 -346 305 -495 145 -192 262 -322 500 -553 235 -230 563 -560
615 -621 57 -68 101 -117 185 -211 27 -30 166 -172 310 -315 233 -233 353
-347 495 -471 24 -21 54 -47 65 -58 11 -10 94 -79 185 -153 91 -74 174 -142
185 -152 76 -63 367 -262 495 -339 209 -125 452 -220 605 -237 286 -32 713
-25 980 16 39 6 81 12 95 15 14 2 45 7 70 10 25 3 48 8 51 10 4 2 24 6 45 9
96 15 385 92 559 150 265 89 433 160 705 298 403 206 588 295 820 399 74 33
153 68 175 78 308 138 922 348 1125 384 14 2 62 11 107 20 133 25 201 31 353
30 141 0 150 -2 340 -52 287 -76 324 -87 413 -131 88 -42 171 -108 230 -182
43 -55 108 -174 132 -244 9 -27 21 -59 25 -70 30 -79 74 -285 95 -445 3 -25 8
-56 10 -70 2 -14 7 -65 11 -115 3 -49 8 -97 9 -105 9 -50 19 -356 20 -600 l0
-285 -33 -140 c-32 -132 -105 -390 -187 -660 -55 -182 -76 -248 -80 -265 -3
-8 -25 -82 -50 -165 -61 -201 -148 -498 -179 -615 -77 -292 -116 -450 -132
-540 -3 -14 -9 -41 -14 -60 -8 -32 -12 -52 -26 -135 -3 -16 -7 -37 -9 -45 -2
-8 -7 -30 -10 -47 -3 -18 -7 -46 -10 -63 -12 -74 -14 -88 -21 -135 -3 -27 -8
-58 -9 -67 -2 -9 -7 -48 -10 -85 -4 -37 -9 -79 -12 -93 -9 -49 -11 -447 -2
-530 15 -135 46 -268 86 -368 148 -370 463 -658 842 -768 46 -13 98 -27 115
-29 17 -3 38 -8 46 -10 111 -31 350 -22 554 20 105 22 225 75 546 243 329 171
313 162 457 260 58 39 216 206 272 286 88 127 194 358 315 683 47 129 134 384
142 418 1 6 23 82 49 170 48 167 115 435 160 640 14 66 28 131 31 145 3 14 8
36 10 50 2 14 6 36 9 50 3 14 8 39 10 55 3 17 8 37 10 45 2 8 7 33 10 55 3 23
7 50 9 60 8 41 19 111 22 130 1 11 3 20 4 20 1 0 3 14 5 30 2 17 9 62 15 100
7 39 13 81 15 95 2 14 6 45 10 70 4 25 8 56 10 70 8 53 40 313 50 405 4 33 8
71 10 85 2 14 7 61 11 105 3 44 8 88 10 97 1 10 6 59 10 110 3 51 8 100 9 109
2 8 6 60 10 115 4 54 8 115 10 134 2 19 7 82 10 140 4 58 9 125 10 150 2 25 6
99 10 165 4 66 8 149 10 185 2 36 7 139 10 230 4 91 8 203 10 250 14 337 19
709 19 1475 0 880 -5 1157 -29 1615 -14 258 -16 298 -20 355 -2 33 -7 98 -10
145 -3 47 -8 112 -10 145 -3 33 -7 92 -11 130 -3 39 -7 88 -9 110 -2 22 -7 72
-10 110 -3 39 -8 86 -10 105 -3 19 -7 62 -10 95 -3 33 -8 76 -10 95 -3 19 -7
55 -10 80 -3 25 -7 61 -10 80 -13 100 -21 161 -30 245 -4 33 -9 63 -11 66 -2
3 -6 30 -9 60 -3 30 -17 122 -31 204 -14 83 -27 161 -29 175 -2 14 -11 61 -20
104 -8 44 -18 93 -21 110 -8 49 -71 330 -99 446 -54 221 -178 629 -220 725 -7
17 -16 41 -20 55 -47 157 -298 677 -384 799 -12 16 -21 32 -21 35 0 10 -100
157 -178 261 -170 226 -359 427 -613 650 -19 17 -77 64 -129 105 -52 41 -97
77 -100 80 -3 3 -61 48 -130 100 -69 51 -179 134 -245 184 -368 276 -520 442
-646 704 -134 279 -163 334 -227 432 -119 182 -264 350 -423 489 -169 148
-289 228 -589 394 -30 17 -68 38 -85 48 -16 10 -51 29 -76 42 -53 29 -75 42
-229 129 -63 36 -137 78 -165 93 -27 16 -117 66 -200 113 -82 47 -179 100
-214 119 -36 19 -92 53 -125 76 -62 41 -224 199 -327 318 -76 87 -257 264
-349 340 -112 94 -469 356 -548 404 -9 6 -51 32 -92 59 -115 74 -124 80 -145
92 -43 24 -97 55 -118 68 -63 39 -297 154 -432 211 -168 72 -515 179 -681 209
-38 8 -142 26 -174 31 -14 3 -50 7 -80 11 -30 3 -63 8 -74 10 -10 2 -51 6 -90
10 -39 3 -89 8 -111 10 -43 6 -593 13 -598 8z m1978 -5889 c116 -24 317 -110
480 -208 161 -96 398 -271 520 -382 347 -318 566 -605 659 -865 15 -41 34 -89
42 -107 36 -84 44 -102 64 -153 119 -302 3 -518 -445 -825 -100 -69 -241 -173
-266 -197 -8 -7 -36 -31 -64 -53 -47 -37 -344 -301 -355 -315 -3 -3 -43 -38
-90 -76 -335 -278 -610 -399 -1135 -500 -120 -23 -350 -48 -440 -48 -324 1
-678 167 -975 458 -88 86 -92 91 -150 166 -19 25 -38 47 -41 50 -35 28 -203
330 -238 430 -7 19 -17 44 -22 55 -17 41 -51 171 -64 248 -3 15 -8 39 -11 55
-13 62 -12 348 1 427 27 153 36 187 91 330 240 622 947 1136 1994 1449 96 29
193 57 215 63 40 11 174 9 230 -2z"/>
<path d="M2995 20154 c-33 -7 -74 -15 -92 -18 -95 -16 -274 -97 -383 -173 -46
-33 -156 -83 -380 -175 -336 -138 -401 -168 -508 -235 -119 -75 -288 -234
-380 -358 -73 -99 -158 -256 -232 -430 -35 -82 -80 -186 -101 -230 -132 -284
-276 -677 -378 -1030 -22 -75 -87 -320 -96 -357 -3 -13 -16 -72 -31 -133 -14
-60 -27 -117 -29 -125 -14 -66 -77 -383 -89 -455 -9 -49 -18 -99 -20 -110 -2
-11 -7 -40 -11 -65 -4 -25 -9 -54 -11 -65 -13 -78 -45 -295 -54 -370 -6 -49
-13 -101 -15 -115 -2 -14 -7 -50 -10 -80 -3 -30 -8 -66 -10 -80 -2 -14 -7 -56
-11 -95 -3 -38 -8 -77 -9 -86 -2 -9 -6 -52 -10 -95 -4 -43 -8 -90 -10 -104 -5
-36 -13 -125 -30 -327 -2 -32 -7 -94 -10 -138 -3 -44 -7 -107 -10 -140 -9
-132 -15 -215 -20 -320 -4 -60 -8 -141 -10 -180 -2 -38 -7 -137 -10 -220 -3
-82 -8 -193 -10 -245 -20 -468 -28 -2148 -12 -2570 4 -107 10 -251 12 -320 3
-69 7 -165 10 -215 3 -49 7 -133 10 -185 7 -133 22 -363 30 -455 2 -27 7 -84
10 -125 3 -41 7 -95 10 -120 2 -25 7 -74 10 -110 3 -36 8 -81 10 -100 2 -19 7
-64 10 -100 4 -36 8 -76 10 -90 2 -14 7 -54 10 -90 4 -36 8 -72 10 -80 2 -8 6
-44 10 -80 4 -36 9 -72 10 -81 2 -9 6 -40 10 -70 3 -30 10 -79 15 -109 5 -30
11 -71 14 -90 5 -36 19 -131 21 -140 2 -11 17 -97 21 -125 4 -26 58 -304 70
-360 2 -11 7 -34 9 -50 3 -17 24 -105 46 -195 22 -91 41 -173 44 -183 2 -10
14 -52 25 -95 12 -42 23 -84 25 -92 6 -26 95 -314 104 -335 5 -11 26 -67 46
-125 119 -335 295 -694 470 -960 219 -331 381 -513 776 -870 133 -120 607
-595 720 -720 52 -58 116 -130 143 -160 142 -158 461 -564 586 -745 12 -16 40
-57 64 -90 24 -33 110 -154 191 -270 82 -115 208 -293 280 -395 147 -208 366
-516 535 -755 203 -287 327 -438 507 -620 445 -449 1023 -799 1598 -969 111
-33 288 -77 360 -90 104 -19 311 -50 415 -61 30 -3 71 -8 90 -10 87 -11 224
-21 430 -32 279 -15 947 -8 1150 12 19 2 73 6 120 9 47 4 103 9 125 11 22 2
69 7 105 10 36 3 76 8 90 10 14 2 52 7 85 10 33 3 71 8 85 10 14 2 44 6 68 9
23 3 61 9 85 12 87 11 411 65 417 69 3 2 24 6 46 9 99 13 462 94 629 141 832
235 1520 640 2055 1211 194 208 354 419 525 694 114 183 237 431 355 715 12
30 35 89 36 95 0 3 5 16 11 30 17 41 119 356 128 396 2 10 12 46 21 79 9 33
18 67 20 75 2 8 8 33 14 55 10 37 63 289 73 345 19 103 27 152 33 195 3 28 8
57 9 66 2 9 6 40 10 70 3 30 8 65 10 79 3 23 9 73 21 200 26 283 26 931 0
1100 -3 14 -7 61 -11 105 -4 44 -8 96 -10 115 -2 19 -7 66 -10 105 -3 38 -7
81 -9 95 -3 14 -7 65 -11 114 -4 50 -8 97 -10 105 -1 9 -6 58 -9 109 -4 51 -9
100 -10 110 -2 9 -7 58 -11 107 -3 50 -8 104 -10 120 -5 37 -16 156 -20 210
-2 22 -6 67 -9 100 -10 93 -15 144 -21 225 -4 41 -8 86 -10 100 -2 14 -7 59
-10 100 -3 41 -7 93 -10 115 -2 22 -7 72 -11 110 -3 39 -8 84 -9 100 -2 17 -6
65 -9 108 -4 42 -8 92 -11 110 -2 17 -7 66 -10 107 -3 41 -8 95 -10 120 -3 25
-7 68 -9 95 -3 28 -8 75 -11 105 -3 30 -8 78 -10 105 -2 28 -7 75 -9 105 -3
30 -8 84 -11 120 -3 36 -8 81 -10 100 -2 19 -7 71 -10 115 -3 44 -8 91 -10
105 -2 14 -6 57 -10 95 -18 206 -209 706 -388 1014 -54 94 -184 291 -219 333
-13 14 -32 39 -43 54 -85 120 -258 301 -726 759 -218 215 -250 248 -378 395
-222 254 -590 626 -851 860 -52 47 -97 87 -100 90 -14 15 -225 194 -290 246
-173 139 -400 306 -505 371 -365 227 -563 308 -805 328 -41 3 -100 8 -130 11
-140 10 -491 4 -610 -12 -25 -4 -61 -8 -80 -10 -41 -3 -126 -14 -155 -19 -11
-2 -39 -7 -63 -10 -61 -8 -218 -41 -315 -66 -45 -11 -91 -22 -102 -25 -42 -8
-174 -48 -255 -76 -47 -16 -92 -31 -100 -33 -79 -17 -399 -155 -600 -258 -223
-114 -550 -278 -615 -307 -27 -13 -93 -43 -145 -67 -52 -25 -180 -81 -285
-125 -104 -44 -204 -86 -222 -94 -72 -32 -486 -179 -533 -189 -3 -1 -36 -11
-75 -23 -80 -24 -293 -77 -345 -86 -54 -8 -93 -15 -119 -21 -87 -17 -291 -24
-381 -13 -136 18 -511 120 -620 170 -199 90 -324 244 -411 510 -16 49 -31 100
-33 114 -3 13 -7 32 -10 42 -9 29 -33 162 -41 227 -3 22 -7 47 -10 55 -2 8 -7
44 -10 80 -4 36 -8 81 -11 100 -2 19 -6 73 -10 120 -3 47 -8 112 -10 145 -2
33 -7 195 -9 360 -6 298 -5 301 18 365 47 127 118 257 253 460 97 146 182 266
635 896 592 824 885 1325 1023 1751 63 192 75 255 83 423 9 197 -32 342 -158
558 -57 98 -166 253 -227 325 -83 96 -128 144 -241 257 -300 299 -644 541
-971 683 -52 23 -160 54 -232 68 -86 16 -290 18 -363 3z m5462 -10327 c4 -3
25 -8 45 -11 131 -21 372 -127 528 -234 135 -92 289 -238 408 -387 145 -181
296 -498 337 -705 40 -201 44 -412 11 -595 -59 -323 -240 -637 -520 -904 -33
-31 -67 -63 -76 -72 -37 -35 -229 -178 -310 -230 -159 -104 -379 -221 -560
-298 -41 -18 -88 -38 -105 -46 -111 -48 -423 -154 -625 -212 -148 -42 -224
-45 -351 -15 -211 51 -438 171 -738 389 -181 132 -427 364 -601 568 -45 53
-161 217 -199 285 -47 80 -62 113 -100 215 -16 44 -41 107 -56 140 -117 260
-117 400 -4 570 81 120 191 216 471 412 111 78 294 222 350 275 19 18 68 62
109 98 40 36 83 74 94 85 28 26 198 171 255 216 138 109 340 219 525 287 101
37 355 106 429 117 17 2 42 6 56 9 63 13 223 36 286 42 38 4 71 8 73 10 6 6
258 -3 268 -9z"/>
</g>
</svg>
